/* XPM */
static char *b3b7a8c010b443e9c57845cee2336029XA9HXAEReuanwiQW[] = {
/* columns rows colors chars-per-pixel */
"50 50 149 2 ",
"   c #1F232C",
".  c #1E2131",
"X  c #22262D",
"o  c #222633",
"O  c #252934",
"+  c #282C36",
"@  c #232638",
"#  c #262A3B",
"$  c #2A2E3B",
"%  c #302E3B",
"&  c #2C313E",
"*  c #272B41",
"=  c #2A2D42",
"-  c #2D3343",
";  c #2E334B",
":  c #323444",
">  c #323846",
",  c #32364B",
"<  c #3A364B",
"1  c #353B4C",
"2  c #3A3D4E",
"3  c #353B52",
"4  c #393E52",
"5  c #393E5A",
"6  c #403C4F",
"7  c #433F52",
"8  c #413E5D",
"9  c #3B414E",
"0  c #3C4254",
"q  c #3F4857",
"w  c #3E445A",
"e  c #3F4959",
"r  c #3E4562",
"t  c #3F4861",
"y  c #434456",
"u  c #414957",
"i  c #41465A",
"p  c #4A465A",
"a  c #434A5C",
"s  c #4B4B5D",
"d  c #47505F",
"f  c #404762",
"g  c #454D62",
"h  c #4B4E61",
"j  c #464D6B",
"k  c #484F6A",
"l  c #514E64",
"z  c #504E6A",
"x  c #475064",
"c  c #4A5265",
"v  c #4D556A",
"b  c #4F596C",
"n  c #515466",
"m  c #54566A",
"M  c #59566B",
"N  c #525A6E",
"B  c #5A5A6E",
"V  c #4D5675",
"C  c #4F5970",
"Z  c #545D72",
"A  c #595E72",
"S  c #535C7B",
"D  c #625F75",
"F  c #576175",
"G  c #5A6276",
"H  c #576179",
"J  c #5B657A",
"K  c #5E697E",
"L  c #646177",
"P  c #62667A",
"I  c #69667D",
"U  c #61697D",
"Y  c #555F80",
"T  c #576181",
"R  c #5E6A80",
"E  c #5C6689",
"W  c #5E698B",
"Q  c #636D83",
"!  c #6B6C83",
"~  c #616D8B",
"^  c #667086",
"/  c #697185",
"(  c #677289",
")  c #68728A",
"_  c #68738A",
"`  c #6A738A",
"'  c #6B758B",
"]  c #6E7689",
"[  c #69748C",
"{  c #6A758C",
"}  c #6D778E",
"|  c #6C778F",
" . c #6E778E",
".. c #6E788F",
"X. c #76748B",
"o. c #79778F",
"O. c #71798C",
"+. c #727A8D",
"@. c #727A8E",
"#. c #616B90",
"$. c #667290",
"%. c #6B7790",
"&. c #6D7790",
"*. c #6C7890",
"=. c #6D7991",
"-. c #6E7990",
";. c #6F7C98",
":. c #727A92",
">. c #757D92",
",. c #737D94",
"<. c #757F97",
"1. c #787F96",
"2. c #737F98",
"3. c #778194",
"4. c #758097",
"5. c #798194",
"6. c #798296",
"7. c #7B8397",
"8. c #758199",
"9. c #77819A",
"0. c #77829A",
"q. c #79829A",
"w. c #79839B",
"e. c #7A849C",
"r. c #7A859E",
"t. c #7A869E",
"y. c #7C869F",
"u. c #7D889D",
"i. c #7D87A0",
"p. c #7C88A1",
"a. c #7D89A1",
"s. c #7F89A2",
"d. c #80879F",
"f. c #808A9E",
"g. c #8089A1",
"h. c #808AA3",
"j. c #838CA4",
"k. c #828DA6",
"l. c #848EA7",
"z. c #858FA8",
"x. c #868FA8",
"c. c #8590A8",
"v. c #8892AB",
"b. c #8A94AD",
"n. c #8D97B0",
"m. c #8E99B2",
"M. c #919BB4",
"N. c #929EB8",
"B. c #96A0BA",
/* pixels */
"h.s.y.r.q.4.<.:.| { / Q Q Z v x & U 6.6.6.5.5.6.5.5.O.O.] U U P F & s v v b Z Z N v x e p.v.s.v.c.s.",
"i.r.q.9.<.,.:...( ^ Q K H A Z i p / / ] O.6.O.O.3.U U U U P P A G 1 1 d d x g v x x 9 d p.p.s.s.s.s.",
"<.q.<.,.-...) ^ Q K J G A Z v u n U m J ] U ] U U U U U P P A A B 9 @ 1 w q 0 w 0 1 . F p.4.u.r.s.u.",
"| | { ) ^ Q Q K K Z N F Z Z x 0 G U G U U U U U U P P G G A A B n 9 o .   = # . . .   G 4.8.4.4.8.%.",
") ) ^ ^ Q Q K K J Z c Z N N q 2 A G P G P G P G P G L A B A B n c & O O O O O O # +   e -.....%.[ | ",
"( ^ Q Q Q K K J J H Z Z N v - 0 N B A A G G G G A A B B B n n d q + + & & - > > 9 9 : # J [ %.%.[ [ ",
"^ Q Q R K K J G Z A Z Z b e O y n n N B B B B N B B B n n n d d - + ; , 1 9 0 q 0 q e - 9 ~ ( [ ( ^ ",
"Q R R K J J H F Z Z v v e = O > u n d B B B B N B n n n s d d u # - 9 9 9 w e a e t x e & v R R ^ Q ",
"R K K J J H F F N v g 3 # O $ O : 7 s h n B n h d d s s u y < % $ 1 0 w e g x c v v v v e > C K R R ",
"J J J H H F F v u 3 ; * + - 1 1 & = 2 4 p s p i u u 9 9 > : % + > 0 q q x x v v b b F Z Z 1 w H K J ",
"K G H H H b f 3 ; ; * + 1 u u x x 0 & - 1 2 2 < > > % + $ + O + 9 w s x v N F H J J K J K b > t F J ",
"J U H v w 3 ; ; ; * & 9 i x v Z G J m > + $ + # + % > > 1 1 $ & u d v N v G K Q ^ ^ [ ^ ^ R e 1 t C ",
"Z F w ; ; ; ; ; @ & 0 u x N F K ! ^ / Q 0 O O - 1 3 0 e 0 u - > d v N G J / ( [ [ { ....| [ K > 3 t ",
"x v ; = ; ; = + & 1 a x N H K ^ ,.<.>.| C 1 O 1 0 e i a u s - 1 v N G K / [ ..4.4.3.0.0.4.4.| b * 5 ",
"1 3 ; ; = @ X + 0 e g b H Q ( ..,.y.h.q.C 3 $ 0 i u x v v v & 9 v F U ^ ] | 4.0.u.u.u.s.p.t.;.( 1 - ",
"; ; = # = 0 > . 0 e g v J ^ | 9.r.r.r.-.Z 4 : i g c m Z Z x + , i v F ^ ,.3.0.c.j.c.v.v.s.8.[ S t # ",
"O O 2 N :.r.Q + - 0 x C J Q ..,.9.9.9.[ V 3 1 a g v N Z k 3 + $ 3 t v H ^ %.u.s.v.m.v.s.;.W S V V - ",
"9 ^ l.b.l.y.9.s . , w x b J ~ ;.2.-.[ T V > > q e a g a 0 $ O O $ 1 t v J ^ ;.p.s.p.;.$.T S H S w X ",
"b.N.b.l.y.6.>.Q - $ - 1 r j V T W W S t 3 + - ; 3 3 5 3 + # - > 1 - ; e k S R %.p.%.W W T T T 0 $ Z ",
"b.c.l.y.q.<...Q e O O O O O & : ; - + # O O O $ $ $ + O O - 3 w e 3 $ + 3 j V H E $.E #.#.S 1 x y.N.",
"y.r.y.q.,.{ ^ K v + + & & & & & - - - - - & & o O . O @ - 3 q e 3 ; + + & # 0 V T E E T w > R v.m.v.",
"s.w.4...^ Q K F v & - , 1 4 4 4 9 9 1 1 1 ; - - $ O O O - 3 3 3 - & c ..,.h X O 3 0 9 &   Z s.u.s.s.",
",.-.) ^ R K H F x - 1 9 4 0 0 0 w w w w 9 3 1 > - = . @ + - & + q ( t.r.j.s.v X . > e b e F 9.4.9.,.",
"..( ^ Q K J F b q & 0 u a g a q x x x s a q q 1 1 - $ O O O > J 8.r.0.4.c.c.,.- > x F | F b ;...{ -.",
"^ Q Q K H A Z v 0 - i c v v v h N B B N v c s u w 1 & . + c [ 4.<.i.i.h.x.n.l.v > x K u.^ v -.R K ) ",
"R K K H A Z Z c > > a v N B G G J H H A B N v x e , . O b ..| 4.<.i.h.l.x.v.n.{ 1 v ( s.R a ^ ( ^ Q ",
"K J F G Z g g w - 1 s g v G U ! Q I U U J G A x 9 # . x [ [ %.4.q.g.h.j.x.b.M.l.e e R -.v 0 K R R K ",
"G F Z v g u 0 > O w x g v v G Q Q ] ) ! ! J x 3 # . 0 Q ^ [ [ 4.1.i.h.j.x.b.m.n.R 1 r v > 1 b F J H ",
"v c g e e 0 - @ O 0 g v v N N Z R Q ) ) J x 0 ; @ : J Q ( [ ..4.q.i.h.j.c.b.b.m.p.w - ; & & x x v N ",
"g e e 0 ; * O $ O $ r j v Z Z Z Z A P A v 3 ; - & N K K ^ ( ..4.e.d.g.h.j.c.b.n.s.Z + 0 H b > e s g ",
"0 3 - # # # > 0 e > - w k k V Z A A A Z 3 3 ; + d J J Q Q ^ [ 4.1.e.d.d.j.j.c.v.c.( 9 x J ..v - 9 w ",
"- # O o O 4 e 0 h c s 1 4 k k k V V A f 3 3 & 9 Z F G K K Q / ..:.1.1.g.u.j.j.c.v.[ x 0 F ( { w # ; ",
"@ - 9 9 O u g x v N N Z a 1 e v j r j r w = & v N Z G J Q Q Q [ O.>.<.<.w.i.u.h.h.U H 1 c Z R Z $ @ ",
"a Q 9.;.v : c Z G K K R K F e 3 g j r w - & g v b Z Z F J U Q Q [ ..:.<.<.q.i.f.:.Q J 1 0 x v f > + ",
">.u.u.<.r.N 1 v U ..-.O.| ) R v 9 > 3 0 & 1 v x v g Z Z H J K R Q ) / O.:.:.{ Q ) U J u $ 1 ; , 0 Z ",
":.<.:./ y.r.v 3 F | i.q.4.r.,.^ b & b %.K , d c c x N N Z Z H K U Q Q Q R K K Q ) Q H f O O 1 v U { ",
") O.:.4.1.i.<.a 4 S 2.,./ ( H k w - F Q Q q e x g x v b Z Z Z Z A H H F F J Z Z b H v 4 O 9 b J K Q ",
"Q ) { :.2.<.<.) 1 r S ~ j r r 3 - + 1 x Z e e d s c x k v v C v v Z x g c g g f r f r - & t v Z J K ",
"J Q / / ) Q ) -.v - f j f 5 3 0 v K N q 1 1 w a a e g x x x g g f g w 5 r r e r e 5 1 O 1 e e v Z G ",
"A H K K Q Q ~ / G $ O - 0 u Z ( 4.s.v.s.Z & + w 9 9 w w w 0 w w w w w f u 5 3 3 > - O @ 1 1 w c v b ",
"b F F H K R R ^ Z $ - w g v H U ..4.r.v.m.{ 1 + ; , : ; 1 3 1 2 > < > : & - - , 4 g q O # 9 w x x v ",
"b C Z H J J J J j & 3 , q v N H K [ 4.r.s.c.4.a X + # % % % : % : : : % + - 9 w N G K x   * 0 w g v ",
"t x x v v v x k 0 $ 1 1 u x v Z J R -.;.9.9.r.4.s o % : 2 7 p p p p y 2 & 9 q v H Q ) -.q . # ; 0 w ",
"- , 3 3 3 3 3 3 ; O * 1 0 u x b C J K Q [ ......Q 2 : 6 p l M D B B m u * 9 x Z Q { ,.q.( & . . . $ ",
"$ # # + # # $ O X . O o - 1 q g v b F J K K Q R J 2 < s M D I I ! I D l + - 0 t C T ~ $.E 9   - & & ",
"4.{ ( R J B v s u 9 , & # # ; 3 w w e v b b v c g - 6 s M L I o.>.X.M <   & 0 0 3 0 w e 1 9 K s.u.q.",
"B.M.m.m.b.x.l.y.0.,.) U b 9 . $ - ; 3 3 3 , ; = # O $ < y l B L I M 6 = b 4.s.p.G & 0 G & -.N.B.B.B.",
"n.m.b.c.c.j.h.u.u.4.,.^ [ K e O O O O # - , 0 u u u q < > : y d z 8 ; z p.c.v.c.s.4.x 1 9 c.B.m.M.b.",
"b.v.v.x.j.y.y.7.1.:.:.) ) Q U a O o 9 G / 5.6.u.u.6.7.5.U N d 9 : % y ( -.,.9.9.4.,.^ 9 x m.m.m.h.4.",
"c.j.h.h.i.u.q.1.:...| / Q U H B & : @.f.l.j.c.f.c.U 6.5.3.3.U G y + v G R ^ U K R J F q ( m.m.c.l.h."
};
