/* XPM */
static char *_527cb96d74d475da76d3ae03616ad99oavChsnjPPhnQyI3[] = {
/* columns rows colors chars-per-pixel */
"50 50 243 2 ",
"   c #3F0E1C",
".  c #2D161E",
"X  c #32171E",
"o  c #34191C",
"O  c #3D1B1D",
"+  c #3C1B20",
"@  c #520604",
"#  c #410F1A",
"$  c #45121B",
"%  c #4A131B",
"&  c #431C1D",
"*  c #4C1E1D",
"=  c #54161B",
"-  c #58171B",
";  c #521E1E",
":  c #5C1A1C",
">  c #601D16",
",  c #631C1C",
"<  c #6B1E1D",
"1  c #721911",
"2  c #4A2117",
"3  c #4D211D",
"4  c #552417",
"5  c #53211E",
"6  c #5B231E",
"7  c #692916",
"8  c #63251E",
"9  c #69261E",
"0  c #66291E",
"q  c #6B2A1E",
"w  c #732D15",
"e  c #73231D",
"r  c #7A251F",
"t  c #732C1E",
"y  c #7B2C1D",
"u  c #74321D",
"i  c #793618",
"p  c #7C331C",
"a  c #431B20",
"s  c #4B1C21",
"d  c #541E21",
"f  c #5A1F22",
"g  c #621F21",
"h  c #462020",
"j  c #4A2120",
"k  c #552221",
"l  c #5C2321",
"z  c #642421",
"x  c #6B2521",
"c  c #642820",
"v  c #6D2921",
"b  c #732522",
"n  c #7B2523",
"m  c #742A21",
"M  c #7B2B22",
"N  c #7E2828",
"B  c #7D3322",
"V  c #7A3520",
"C  c #79431D",
"Z  c #931B06",
"A  c #9C2408",
"S  c #8C360F",
"D  c #99350E",
"F  c #872D14",
"G  c #832C1D",
"H  c #8B2C1D",
"J  c #962E18",
"K  c #853214",
"L  c #8C3313",
"P  c #85351A",
"I  c #8C331D",
"U  c #8D391D",
"Y  c #973917",
"T  c #9C3914",
"R  c #93341B",
"E  c #9B341B",
"W  c #94391B",
"Q  c #A62604",
"!  c #BB2D03",
"~  c #A73A0D",
"^  c #B73A08",
"/  c #A33B13",
"(  c #AB3C14",
")  c #A2341B",
"_  c #A93519",
"`  c #A33D1A",
"'  c #AD3B1B",
"]  c #B33C14",
"[  c #BB3D15",
"{  c #B33C1A",
"}  c #B9381C",
"|  c #842623",
" . c #832D23",
".. c #8B2C23",
"X. c #8B2825",
"o. c #942C23",
"O. c #982B26",
"+. c #992D24",
"@. c #833222",
"#. c #8C3223",
"$. c #863924",
"%. c #8C3A22",
"&. c #943324",
"*. c #9C3423",
"=. c #933B21",
"-. c #9C3B23",
";. c #9A3429",
":. c #A42E23",
">. c #A23424",
",. c #AA3424",
"<. c #A33C25",
"1. c #AC3B24",
"2. c #A63A29",
"3. c #B83822",
"4. c #C83804",
"5. c #D53A02",
"6. c #C43D16",
"7. c #C43D1B",
"8. c #CA3C1D",
"9. c #E23F02",
"0. c #CC3926",
"q. c #89431E",
"w. c #98451A",
"e. c #97541F",
"r. c #A8480E",
"t. c #B3420E",
"y. c #BD440E",
"u. c #B9480B",
"i. c #BA590D",
"p. c #A84517",
"a. c #B34212",
"s. c #BB4114",
"d. c #B4441D",
"f. c #B84818",
"g. c #A65619",
"h. c #B5561A",
"j. c #BB541C",
"k. c #B46715",
"l. c #B8661C",
"z. c #854021",
"x. c #8C4424",
"c. c #9B4522",
"v. c #984622",
"b. c #9E5724",
"n. c #AA4323",
"m. c #A94724",
"M. c #BB4423",
"N. c #B64823",
"B. c #AA5522",
"V. c #BC5722",
"C. c #C3460E",
"Z. c #CA460A",
"A. c #C44B0B",
"S. c #CC4A0B",
"D. c #D64707",
"F. c #DB4B05",
"G. c #D44B0D",
"H. c #DC4C0C",
"J. c #C8570C",
"K. c #DD5206",
"L. c #D85709",
"P. c #DC540B",
"I. c #C54213",
"U. c #CB4413",
"Y. c #CC4A14",
"T. c #C5481A",
"R. c #D74517",
"E. c #D44C12",
"W. c #DC4B13",
"Q. c #C45313",
"!. c #C85816",
"~. c #D85913",
"^. c #E74802",
"/. c #E34C05",
"(. c #E34D0B",
"). c #E45305",
"_. c #EB5505",
"`. c #E35B05",
"'. c #E4530A",
"]. c #EB520A",
"[. c #E75C08",
"{. c #F55503",
"}. c #FA5400",
"|. c #F45B03",
" X c #FD5C02",
".X c #F4540B",
"XX c #E64A14",
"oX c #E55B14",
"OX c #F15610",
"+X c #D7670B",
"@X c #D9780D",
"#X c #C86714",
"$X c #D66512",
"%X c #DC6314",
"&X c #D86718",
"*X c #C87518",
"=X c #D77714",
"-X c #E66708",
";X c #F36404",
":X c #FD6201",
">X c #F46D03",
",X c #FC6B01",
"<X c #F7680B",
"1X c #EC7403",
"2X c #E97808",
"3X c #F47105",
"4X c #FD7303",
"5X c #FD7D01",
"6X c #F9740A",
"7X c #E16512",
"8X c #E87817",
"9X c #C34823",
"0X c #C75523",
"qX c #D55323",
"wX c #D76A23",
"eX c #DF7424",
"rX c #EC7A24",
"tX c #D9840B",
"yX c #DE930D",
"uX c #E98808",
"iX c #F78306",
"pX c #FB8402",
"aX c #F48906",
"sX c #FE8C01",
"dX c #F48C0A",
"fX c #EA9609",
"gX c #F69507",
"hX c #FD9301",
"jX c #F59B02",
"kX c #FD9D02",
"lX c #E58515",
"zX c #F19012",
"xX c #FEA502",
"cX c #FEAC01",
"vX c #F5A509",
"bX c #FEB301",
"nX c #FFBB01",
"mX c #FFB10A",
"MX c #FAA718",
"NX c #FFC500",
"BX c #FFCA00",
"VX c #FFD402",
"CX c #FFE300",
/* pixels */
"l 6 l z z z 8 n v m x p.W @.m m v v c x 0 z z b Z.m m m M M M M M  .m x I w k 6 k d H 7 O 3 5 5 6 6 ",
"c 0 0 9 0 ; 8 m m z j R #. .| M M M M M b 9 v < ) G M #.#.#. .#.&.#.&.b / G v 6 ; E ).6 5 6 l 6 c 8 ",
"m v m m z ; e 0 5 * E !.$.m v 9 x x v b b b n | W.L.d.m.=.M N M &.*...) ).G x f / 4./.7 l c z q 0 v ",
"M m B q ; ; J ; x f.hXiXT.*.| n b b b b ) H.G.].4XkXxXzXM.X.b n X.X.] ^.{.G b } ! @ Z F z v v m m m ",
"@.| 9 * * H 5.Y.7XbXcX#XT.6.7.7.} } } W./.K 5 6 i r.@XjX5X~.3.} 7.D.A Z ^.].XX}.4.Q ! Z.l m t y M B ",
"z * & : X.6.! G.bXbXV.=.n b G J [ H. XZ.z s * * 2 3 7 u i r.H. X X9.4.5.Z.^ D D D Q ^ H.w m @. .y t ",
"s ; e :./.D.^ +XkXj.#.n b < x x z x Z.( f z f ; j j 3 3 O X & w S.).D > % # # # $ $ $ : L 6 0 6 5 & ",
"m ..[ {.( 0 $.v.!...b < x x z z z z G C.z z 6 l k 5 * * * * & O 5 1   % % = = = - - : = F G l 6 0 q ",
"T.H.! ^ l z n ..( b < x z 8 z z 0 x 6 t.G v x z z l 6 k ; 5 * 5 4 - = - = - - - : : , , t y.U &.*.>.",
"S.~ D 9 x M M ..( x x z z z z 9 x v z / ( b m N m m v q z 8 5 l : : - - : : : , , , , e n A.~.0XE.[.",
"q k * * M #.X.{ ' z z x 0 x x v v m 9 ` 7X .M  . . .M M m m b x 8 : : , , , < < < < e r H p.iXgXhXi.",
"$.q l : @.&.&.~.p.m x x x v q m t 8 t $XbX~.M N &.&.#... . .@.M r < , < < < < e e e r G *.n.fXBXtXx.",
"$.u 0 z n &.0XaXh.&.M t m t M 0 & : Q.xXjXsX!.n N &.<.<.-.#. .m y F , e e r r r n G G X.E n.=XjXh.v.",
"%.m v v  .n.lXVXlX=.q 6 l 6 * O 8 Z.5X#X-.w.`.Y.-.v.v.m.-. .X.*.H.y., n | | G | | X.X.J -.<.f.J.c.c.",
"#.M N N E 8XnXVXbX+XT 8 * ; , J /. XE b M m w.pXzXlX*XV.1.} T.L.F.F.H r H X.H o.o.o.o.+.*.>.' f.=.-.",
"&.@. ...|.-X&XeXwX7X5X,X/.L.H.! ^.{.m m u q.@XnXBXnXxX6X.X X^.u.~ K.~.H H o.+.+.*.+.+.*.*.>.>.C.#.&.",
"..|  .H.S.m =.N.2.!.sX[.H.-X5X4.5.|.t q C k.bXNXfX#Xd.p.s.). X;X-XjXcXf.| ..>.,.,.>.:.>.>.>.O.S...;.",
"..:.R. X0 k u V f.hXP.X.n b y.,X_.>XU V b.dXxX#Xv.M b x z b E Q.$XlXxX-X+.n o.>.>.,.,.,.,.>.| H.E N ",
"E.S.|.,XK.S q r.pX1X*...n b t -XxXxX$Xi.>X2Xp.M x x x x z x z M #.m.d.>XH.>.&.| n X.X.o.O.o.X.H._.H.",
"3 o O 7 r.L.1XvXaXV.-.#.M x q #XNXvX5X5XP.M x x z z g z 8 z z x m @.M a.4X%XM.:.O.X.X.O.+.*.>. XF.w ",
"+ o o O 2 c g.fXkX0X-.#.m q l i.hX-X>XL. .v x 8 z z 6 z z z x x v v N q.gXsX:X].W.8.8.0.M.9X3Xu.2 . ",
"j & & 2 4 u q.k.fXgXh.B u 0 5 -XD._.,XE b x z z z v z z 9 x x v m m $.*XbX$X*.E _ C.~.-XdXkX+X0 k k ",
"l 5 3 3 6 q p v.e.+X5XW l 0 i.;XA ).;X .x 0 z z c x 9 v v m m m m B g.bX@XX.z l f x ..N.gXcXw.B q 6 ",
"v 0 l 6 6 c p p P u S.`.r.uXcX3XL.>X+XP v x x 9 x q v m v q z 8 v q.fXdX-.m z z 8 q  .>.%XuX$.G m v ",
"V v v v z c q t m m v ~.pX1X!.N.j.iXuXx.$.m v v v m t 8 & & ; : R 2XbX!.X.m 9 8 z v M &.~.J. . .M m ",
"@.M m M m z l v v m @.s.E.o.| $.x.l.NX*Xz.B v x v q 5 o & , e _ ;XpXxXf. .#.@.V v M @...Y.`  .#.@.@.",
"#.@. .@. .z * z M &.M.<Xf.M z z u b.yXnXtXq.8 * * * * e J ] F.}.^ Q pX~.&.=.-.%.V z b | W.H g b #.&.",
"N B  . . .x g G ' &XgXcXV.M 0 ; c P b.fXBXhX2XL.F.H./.F.F.}.:X}././.:XpX7X0Xm.W y n O.8. XI.X.x g x ",
"n 9 b b b ..Z. X,XaXbXbXf.@.0 6 6 v z.=XzXj.g.w.I.:XD.Q 4.}.{.Z.E &.d.iXNXMXrXqXT.R.OX].(.'.].I.E | ",
"s.) ] } U.{. XY.{ 2.&XgXn.#.q 5 2 h x.%X!.x.V m @.'.}.}.{.C.y f l m &.0XMXCXmXsX4XP.` X.n | _  X X].",
"l : e /  XF.y g b #.d.,X*.M 5 & 5 t d.,XoX%.u t -.>X5XP.*.z f ; k 0 $.m.wXzXnXaXd.M v b q b ..].r.7 ",
"v M v x ).G d ; 6 v E  X1.| M  .R ' y.a.a.a.p.N.&XhX%X<.@.q 5 * * 5 u =.N.0X6X>X&.M y m 9 f [ T d x ",
"#. .b *.'.z l ; 5 z I }.T.M.E q 5 3 & & k q U !.kXbXwXm.#.t 6 3 3 k 8 V &.N.<X-X&.M m 0 5 ; C.y  .#.",
"N b O.XXA.x 0 8 x v R  XH.q & O & * * 5 c t =.B.fXBXlXN.-.p q 6 6 6 O & b 0X4X<X*.b s O & m H.G X.| ",
"O.7..X X{ N M  . .x s.S.& O & * * 3 ; 6 0 t %.m.*XbXeXN.-.$.t v v 3 q Y T.3XpX`.T. .z x  .M. X*.n | ",
"OX).s._.E.|  .@.m G K.* & 3 * 5 5 6 l 6 0 M P =.Q.hX&Xm.<.#.@.N 8 H ;X5X>X1X-XL.[.T.f.Y.Y.Y.(.].R.XX",
"W g s y  XU.>.>.1.;XS a 3 5 l 6 8 z z z v m t M T.,X:XT.2.<.;.M M '.;XL 6 0 m m W :XH.' o.| | H.:XG.",
"l * 3 s K `.,XzXgX1X6 5 z 8 q v v m v v v 9 v  .f.n.$XaX&XV.m.m.$XiXi d z 9 b v ] s.X.N b b x ( { g ",
"k & 3 5 l M !.NXBXh.v 0 v q m m t m m m m z , H P V B.vXBXnXvXvXcXg.B M b M | m C.&.#... .m z ]  .z ",
"l k 6 z m &.N.dXgXU M m m M M M  . . . .M z b G x 0 x.tXfXtXfXjXkXv.v.&.*.&...o.{ &.&.#.#.M y [ N z ",
"z 8 q t M #.2.~.+Xe M M  .G @. ...#.....N z n o.b q F w.V @.#.*.J.` ;.>.O.o.,.'.( N *.&.#.q / } | q ",
"m x 9 9 x | O.7.A.0  .@.#.#.#.&.&.&.#.M x v +.3.+.o.L 3 v  .&...H G.>.,.T.U.C.;Xu.& m U m w )._ X.M ",
"X...H +.:.7.0.XX^ z #.#.&.&.*.<.&. .v m  .E 0.W.|.S.; ; m &...b *.>X4X/./ q l E ;X3 . . i I.E I.,.O.",
"R.U.6.6.U.W..X,XL.z #.&.*.>.&.M z l M %.N.qXoX<X:XD s z m #.x &.I.,Xi., g x x E hX2XL S a.x | }  X(.",
"5 2 * 5 6 6 e -XhXW #.-.#.m z f , b &.M.rXvXdXN.H.T d z x x ) (.1 4.L x m M  .E 5X$X) ] Z.r E / w 4 ",
"h & * * 5 d f R hX=X@.M m b b r | >.R.<XnXNX0X#.a.a.f v I { '.^.! 9.] b X... ...D.b b z H._.i O o O ",
"h & & 3 k ; f x +XsXY.` -.>.*.,.I.E.u.w.k.aXQ.@./ P.{ Y.a.K 4 3 K S.>XA.X.n | Z.y.l 9 y Z.7 o O O & ",
"j & * ; 5 : 8 g L.~.~.iXlX~.W.G.D 4 O 4 0 U `.P y.|.~ 8 O O & & O & q J.'.U.'.).S.6 & K 2 o O O O O ",
"j & 3 3 5 l k F { ..<.aXxX1Xr.6 O h 3 3 6 k S :X].q s k 5 ; k 3 5 5 d a / u.* O 3 K D S o & & O & & ",
"k k l l l z l R N M  .%X+XP x c l 6 l l 6 k j A.'.l z z v v x x x z z l P w o O & * W i O & & & 2 2 "
};
